<svg xmlns="http://www.w3.org/2000/svg" version="1.1" xmlns:xlink="http://www.w3.org/1999/xlink" xmlns:svgjs="http://svgjs.dev/svgjs" width="1500" height="443" viewBox="0 0 1500 443"><g transform="matrix(1,0,0,1,-0.9090909090909918,-0.4873357310573567)"><svg viewBox="0 0 396 117" data-background-color="#510000" preserveAspectRatio="xMidYMid meet" height="443" width="1500" xmlns="http://www.w3.org/2000/svg" xmlns:xlink="http://www.w3.org/1999/xlink"><g id="tight-bounds" transform="matrix(1,0,0,1,0.2400000000000091,0.12870943687067893)"><svg viewBox="0 0 395.52 116.74258112625864" height="116.74258112625864" width="395.52"><g><svg viewBox="0 0 567.5824658045441 167.5289291566265" height="116.74258112625864" width="395.52"><g transform="matrix(1,0,0,1,172.0624658045441,51.768870774526675)"><svg viewBox="0 0 395.52 63.99118760757315" height="63.99118760757315" width="395.52"><g id="textblocktransform"><svg viewBox="0 0 395.52 63.99118760757315" height="63.99118760757315" width="395.52" id="textblock"><g><svg viewBox="0 0 395.52 63.99118760757315" height="63.99118760757315" width="395.52"><g transform="matrix(1,0,0,1,0,0)"><svg width="395.52" viewBox="2.25 -37 290.47 47" height="63.99118760757315" data-palette-color="#e2b8a5"><path d="M24.7-25.55L24.7-25.55Q25.35-25.55 25.78-25.1 26.2-24.65 26.2-24L26.2-24 26.2-1.5Q26.2-0.9 25.75-0.45 25.3 0 24.7 0L24.7 0Q24 0 23.6-0.45 23.2-0.9 23.2-1.5L23.2-1.5 23.2-7.45 24.05-7.85Q24.05-6.45 23.28-5 22.5-3.55 21.15-2.3 19.8-1.05 17.98-0.28 16.15 0.5 14 0.5L14 0.5Q10.65 0.5 7.98-1.25 5.3-3 3.78-6.05 2.25-9.1 2.25-12.9L2.25-12.9Q2.25-16.8 3.8-19.78 5.35-22.75 8-24.45 10.65-26.15 13.95-26.15L13.95-26.15Q16.1-26.15 17.98-25.4 19.85-24.65 21.25-23.35 22.65-22.05 23.45-20.38 24.25-18.7 24.25-16.9L24.25-16.9 23.2-17.65 23.2-24Q23.2-24.65 23.6-25.1 24-25.55 24.7-25.55ZM14.3-2.3L14.3-2.3Q16.95-2.3 19-3.68 21.05-5.05 22.23-7.48 23.4-9.9 23.4-12.9L23.4-12.9Q23.4-15.85 22.23-18.2 21.05-20.55 19-21.95 16.95-23.35 14.3-23.35L14.3-23.35Q11.7-23.35 9.63-22 7.55-20.65 6.38-18.3 5.2-15.95 5.2-12.9L5.2-12.9Q5.2-9.9 6.35-7.48 7.5-5.05 9.58-3.68 11.65-2.3 14.3-2.3ZM46.2-26.15L46.2-26.15Q49.6-26.15 52.22-24.45 54.85-22.75 56.4-19.78 57.95-16.8 57.95-12.9L57.95-12.9Q57.95-9.1 56.4-6.05 54.85-3 52.2-1.25 49.55 0.5 46.25 0.5L46.25 0.5Q44.5 0.5 42.92-0.05 41.35-0.6 40.05-1.53 38.75-2.45 37.75-3.7 36.75-4.95 36.15-6.4L36.15-6.4 37.05-7.05 37.05-1.4Q37.05-0.75 36.62-0.33 36.2 0.1 35.55 0.1L35.55 0.1Q34.9 0.1 34.47-0.33 34.05-0.75 34.05-1.4L34.05-1.4 34.05-35.45Q34.05-36.1 34.45-36.52 34.85-36.95 35.55-36.95L35.55-36.95Q36.2-36.95 36.62-36.52 37.05-36.1 37.05-35.45L37.05-35.45 37.05-18.7 36.35-19.1Q36.85-20.65 37.82-21.93 38.8-23.2 40.1-24.15 41.4-25.1 42.95-25.63 44.5-26.15 46.2-26.15ZM45.95-23.35L45.95-23.35Q43.25-23.35 41.2-22 39.15-20.65 37.97-18.3 36.8-15.95 36.8-12.9L36.8-12.9Q36.8-9.9 37.97-7.48 39.15-5.05 41.2-3.68 43.25-2.3 45.95-2.3L45.95-2.3Q48.6-2.3 50.62-3.7 52.65-5.1 53.85-7.53 55.05-9.95 55.05-12.9L55.05-12.9Q55.05-15.95 53.85-18.3 52.65-20.65 50.62-22 48.6-23.35 45.95-23.35ZM67.05-24.5L67.05-1.5Q67.05-0.9 66.6-0.45 66.15 0 65.55 0L65.55 0Q64.9 0 64.47-0.45 64.05-0.9 64.05-1.5L64.05-1.5 64.05-24.5Q64.05-25.1 64.47-25.55 64.9-26 65.55-26L65.55-26Q66.2-26 66.62-25.55 67.05-25.1 67.05-24.5L67.05-24.5ZM65.55-29.35L65.55-29.35Q64.5-29.35 63.97-29.83 63.45-30.3 63.45-31.2L63.45-31.2 63.45-31.7Q63.45-32.6 64.02-33.08 64.6-33.55 65.6-33.55L65.6-33.55Q66.55-33.55 67.07-33.08 67.6-32.6 67.6-31.7L67.6-31.7 67.6-31.2Q67.6-30.3 67.07-29.83 66.55-29.35 65.55-29.35ZM78.14-35.5L78.14-1.5Q78.14-0.9 77.69-0.45 77.24 0 76.64 0L76.64 0Q75.99 0 75.57-0.45 75.14-0.9 75.14-1.5L75.14-1.5 75.14-35.5Q75.14-36.1 75.59-36.55 76.04-37 76.64-37L76.64-37Q77.29-37 77.72-36.55 78.14-36.1 78.14-35.5L78.14-35.5ZM112.14-25.75L112.14-25.75Q115.54-25.75 118.16-24.08 120.79-22.4 122.34-19.48 123.89-16.55 123.89-12.75L123.89-12.75Q123.89-8.95 122.34-6 120.79-3.05 118.14-1.35 115.49 0.35 112.19 0.35L112.19 0.35Q110.44 0.35 108.86-0.18 107.29-0.7 105.99-1.6 104.69-2.5 103.69-3.73 102.69-4.95 102.09-6.4L102.09-6.4 102.99-7.05 102.99 8.5Q102.99 9.1 102.56 9.55 102.14 10 101.49 10L101.49 10Q100.84 10 100.41 9.55 99.99 9.1 99.99 8.5L99.99 8.5 99.99-24.1Q99.99-24.75 100.39-25.2 100.79-25.65 101.49-25.65L101.49-25.65Q102.14-25.65 102.56-25.2 102.99-24.75 102.99-24.1L102.99-24.1 102.99-18.7 102.29-19.1Q102.79-20.65 103.76-21.88 104.74-23.1 106.04-23.98 107.34-24.85 108.89-25.3 110.44-25.75 112.14-25.75ZM111.89-22.95L111.89-22.95Q109.19-22.95 107.14-21.63 105.09-20.3 103.91-18.03 102.74-15.75 102.74-12.75L102.74-12.75Q102.74-9.8 103.91-7.45 105.09-5.1 107.14-3.78 109.19-2.45 111.89-2.45L111.89-2.45Q114.54-2.45 116.56-3.78 118.59-5.1 119.79-7.45 120.99-9.8 120.99-12.75L120.99-12.75Q120.99-15.7 119.79-18 118.59-20.3 116.56-21.63 114.54-22.95 111.89-22.95ZM150.84-25.55L150.84-25.55Q151.49-25.55 151.91-25.1 152.34-24.65 152.34-24L152.34-24 152.34-1.5Q152.34-0.9 151.89-0.45 151.44 0 150.84 0L150.84 0Q150.14 0 149.74-0.45 149.34-0.9 149.34-1.5L149.34-1.5 149.34-7.45 150.19-7.85Q150.19-6.45 149.41-5 148.64-3.55 147.29-2.3 145.94-1.05 144.11-0.28 142.29 0.5 140.14 0.5L140.14 0.5Q136.79 0.5 134.11-1.25 131.44-3 129.91-6.05 128.39-9.1 128.39-12.9L128.39-12.9Q128.39-16.8 129.94-19.78 131.49-22.75 134.14-24.45 136.79-26.15 140.09-26.15L140.09-26.15Q142.24-26.15 144.11-25.4 145.99-24.65 147.39-23.35 148.79-22.05 149.59-20.38 150.39-18.7 150.39-16.9L150.39-16.9 149.34-17.65 149.34-24Q149.34-24.65 149.74-25.1 150.14-25.55 150.84-25.55ZM140.44-2.3L140.44-2.3Q143.09-2.3 145.14-3.68 147.19-5.05 148.36-7.48 149.54-9.9 149.54-12.9L149.54-12.9Q149.54-15.85 148.36-18.2 147.19-20.55 145.14-21.95 143.09-23.35 140.44-23.35L140.44-23.35Q137.84-23.35 135.76-22 133.69-20.65 132.51-18.3 131.34-15.95 131.34-12.9L131.34-12.9Q131.34-9.9 132.49-7.48 133.64-5.05 135.71-3.68 137.79-2.3 140.44-2.3ZM161.68 0L161.68 0Q160.98 0 160.58-0.45 160.18-0.9 160.18-1.5L160.18-1.5 160.18-23.9Q160.18-24.5 160.61-24.95 161.03-25.4 161.68-25.4L161.68-25.4Q162.33-25.4 162.76-24.95 163.18-24.5 163.18-23.9L163.18-23.9 163.18-16.4 162.43-16.25Q162.58-18 163.31-19.73 164.03-21.45 165.28-22.9 166.53-24.35 168.26-25.25 169.98-26.15 172.13-26.15L172.13-26.15Q173.03-26.15 173.88-25.78 174.73-25.4 174.73-24.55L174.73-24.55Q174.73-23.8 174.33-23.4 173.93-23 173.38-23L173.38-23Q172.93-23 172.41-23.25 171.88-23.5 171.03-23.5L171.03-23.5Q169.63-23.5 168.23-22.68 166.83-21.85 165.68-20.45 164.53-19.05 163.86-17.32 163.18-15.6 163.18-13.85L163.18-13.85 163.18-1.5Q163.18-0.9 162.73-0.45 162.28 0 161.68 0ZM188.68-36.8L188.68-36.8Q189.43-36.8 190.31-36.65 191.18-36.5 191.83-36.13 192.48-35.75 192.48-35L192.48-35Q192.48-34.45 192.08-34.02 191.68-33.6 191.18-33.6L191.18-33.6Q190.68-33.6 189.93-33.88 189.18-34.15 188.33-34.15L188.33-34.15Q187.28-34.15 186.53-33.68 185.78-33.2 185.38-32.33 184.98-31.45 184.98-30.2L184.98-30.2 184.98-1.5Q184.98-0.9 184.56-0.45 184.13 0 183.48 0L183.48 0Q182.83 0 182.41-0.45 181.98-0.9 181.98-1.5L181.98-1.5 181.98-30.2Q181.98-33.4 183.86-35.1 185.73-36.8 188.68-36.8ZM178.33-25.05L190.58-25.05Q191.18-25.05 191.58-24.65 191.98-24.25 191.98-23.65L191.98-23.65Q191.98-23.05 191.58-22.65 191.18-22.25 190.58-22.25L190.58-22.25 178.33-22.25Q177.78-22.25 177.36-22.68 176.93-23.1 176.93-23.65L176.93-23.65Q176.93-24.3 177.36-24.68 177.78-25.05 178.33-25.05L178.33-25.05ZM216.18-25.4L216.18-25.4Q216.83-25.4 217.25-24.95 217.68-24.5 217.68-23.9L217.68-23.9 217.68-9.8Q217.68-4.85 214.88-2.25 212.08 0.35 207.33 0.35L207.33 0.35Q202.63 0.35 199.85-2.25 197.08-4.85 197.08-9.8L197.08-9.8 197.08-23.9Q197.08-24.5 197.5-24.95 197.93-25.4 198.58-25.4L198.58-25.4Q199.23-25.4 199.65-24.95 200.08-24.5 200.08-23.9L200.08-23.9 200.08-9.8Q200.08-6.2 202-4.33 203.93-2.45 207.33-2.45L207.33-2.45Q210.78-2.45 212.73-4.33 214.68-6.2 214.68-9.8L214.68-9.8 214.68-23.9Q214.68-24.5 215.08-24.95 215.48-25.4 216.18-25.4ZM237.03-25.75L237.03-25.75Q240.13-25.75 242.33-24.13 244.53-22.5 245.33-19.3L245.33-19.3 244.63-19.1 244.93-20Q245.58-21.5 247.1-22.83 248.63-24.15 250.58-24.95 252.53-25.75 254.53-25.75L254.53-25.75Q257.68-25.75 259.6-24.4 261.53-23.05 262.4-20.78 263.28-18.5 263.28-15.65L263.28-15.65 263.28-1.5Q263.28-0.9 262.85-0.45 262.43 0 261.78 0L261.78 0Q261.13 0 260.7-0.45 260.28-0.9 260.28-1.5L260.28-1.5 260.28-15.5Q260.28-17.55 259.63-19.25 258.98-20.95 257.58-21.95 256.18-22.95 253.83-22.95L253.83-22.95Q251.78-22.95 249.9-21.95 248.03-20.95 246.85-19.25 245.68-17.55 245.68-15.5L245.68-15.5 245.68-1.5Q245.68-0.9 245.25-0.45 244.83 0 244.18 0L244.18 0Q243.53 0 243.1-0.45 242.68-0.9 242.68-1.5L242.68-1.5 242.68-15.65Q242.68-17.7 242.08-19.35 241.48-21 240.13-21.98 238.78-22.95 236.48-22.95L236.48-22.95Q234.43-22.95 232.6-21.98 230.78-21 229.65-19.35 228.53-17.7 228.53-15.65L228.53-15.65 228.53-1.5Q228.53-0.9 228.08-0.45 227.63 0 227.03 0L227.03 0Q226.33 0 225.93-0.45 225.53-0.9 225.53-1.5L225.53-1.5 225.53-23.9Q225.53-24.5 225.95-24.95 226.38-25.4 227.03-25.4L227.03-25.4Q227.68-25.4 228.1-24.95 228.53-24.5 228.53-23.9L228.53-23.9 228.53-19.25 227.18-17.4Q227.33-18.9 228.15-20.4 228.98-21.9 230.33-23.1 231.68-24.3 233.4-25.03 235.13-25.75 237.03-25.75ZM282.47 0.5L282.47 0.5Q278.62 0.5 275.67-1.15 272.72-2.8 271.07-5.75 269.42-8.7 269.42-12.65L269.42-12.65Q269.42-16.9 271.1-19.9 272.77-22.9 275.45-24.53 278.12-26.15 281.12-26.15L281.12-26.15Q283.32-26.15 285.4-25.38 287.47-24.6 289.07-23.08 290.67-21.55 291.67-19.35 292.67-17.15 292.72-14.25L292.72-14.25Q292.72-13.65 292.27-13.23 291.82-12.8 291.22-12.8L291.22-12.8 271.17-12.8 270.57-15.5 290.27-15.5 289.62-14.9 289.62-15.9Q289.37-18.25 288.07-19.9 286.77-21.55 284.95-22.4 283.12-23.25 281.12-23.25L281.12-23.25Q279.62-23.25 278.05-22.65 276.47-22.05 275.2-20.78 273.92-19.5 273.12-17.53 272.32-15.55 272.32-12.85L272.32-12.85Q272.32-9.9 273.52-7.5 274.72-5.1 276.97-3.7 279.22-2.3 282.42-2.3L282.42-2.3Q284.12-2.3 285.52-2.8 286.92-3.3 288-4.13 289.07-4.95 289.77-5.85L289.77-5.85Q290.32-6.3 290.82-6.3L290.82-6.3Q291.37-6.3 291.75-5.9 292.12-5.5 292.12-5L292.12-5Q292.12-4.4 291.62-3.95L291.62-3.95Q290.12-2.15 287.72-0.83 285.32 0.5 282.47 0.5Z" opacity="1" transform="matrix(1,0,0,1,0,0)" fill="#e2b8a5" class="wordmark-text-0" data-fill-palette-color="primary" id="text-0"></path></svg></g></svg></g></svg></g></svg></g><g><svg viewBox="0 0 156.95568219889867 167.5289291566265" height="167.5289291566265" width="156.95568219889867"><g><svg xmlns:x="http://ns.adobe.com/Extensibility/1.0/" xmlns:i="http://ns.adobe.com/AdobeIllustrator/10.0/" xmlns:graph="http://ns.adobe.com/Graphs/1.0/" xmlns="http://www.w3.org/2000/svg" xmlns:xlink="http://www.w3.org/1999/xlink" xmlns:a="http://ns.adobe.com/AdobeSVGViewerExtensions/3.0/" version="1.1" x="0" y="0" viewBox="6.875 3.4846856285307677 87.05115365636087 92.91531437146924" enable-background="new 0 0 100 100" xml:space="preserve" height="167.5289291566265" width="156.95568219889867" class="icon-icon-0" data-fill-palette-color="accent" id="icon-0"><path d="M92.7 60C88.3 56.8 81.6 54.6 77.5 53.4 81.1 51.3 85.5 47.7 85.5 42.6 85.5 36.9 90.7 28 90.8 28 91.1 27.6 91.1 27 90.9 26.6 90.7 26.1 90.3 25.8 89.8 25.8 89.4 25.7 89 25.7 88.5 25.7 84.2 25.7 78.9 29 75.5 31.6 75.8 28.5 75.3 24.7 73.4 20.5 70.7 14.6 69 4.8 68.9 4.7 68.8 4 68.2 3.5 67.6 3.5 66.9 3.4 66.3 3.8 66.1 4.4S65.8 5.5 65.8 6.1C65.7 7.5 65.5 9.5 60.2 12.7 55 15.9 51.7 19.5 50 21.6 48.3 19.5 45 15.9 39.8 12.7 34.5 9.5 34.4 7.5 34.2 6.1 34.2 5.6 34.1 5 33.9 4.4S33 3.4 32.4 3.5C31.7 3.6 31.2 4.1 31.1 4.7 31.1 4.8 29.4 14.5 26.8 20.4 24.9 24.6 24.4 28.5 24.7 31.5 21.2 28.9 16 25.6 11.7 25.6 11.3 25.6 10.8 25.6 10.4 25.7 9.9 25.8 9.5 26.1 9.3 26.5S9.1 27.5 9.4 27.9C9.5 28 14.7 36.9 14.7 42.5 14.7 47.6 19.1 51.2 22.7 53.3 18.5 54.5 11.9 56.7 7.5 59.9 7 60.3 6.8 60.9 6.9 61.4 7 62 7.5 62.4 8.1 62.6 8.2 62.6 17.2 64.4 20.6 67.8 23.4 70.6 27.6 71.5 30.6 71.5H31.7C30.7 73.6 29.5 76.2 28.9 78.5 28.8 79 28.9 79.6 29.3 79.9 29.7 80.3 30.2 80.4 30.7 80.3 31.5 80.1 36.6 78.8 40.3 76.6 40.3 77.9 40.5 79.4 41 80.8 41.1 81.2 41.5 81.5 41.9 81.7S42.7 81.8 43.1 81.6C43.3 81.5 46.2 80 48.8 76V82.8C48.7 83.7 48.5 89.8 54.7 96 55 96.3 55.4 96.4 55.8 96.4S56.6 96.3 56.9 96C57.5 95.4 57.5 94.5 56.9 93.9 51.4 88.4 51.9 83.3 51.9 83V76C54.5 80 57.4 81.5 57.5 81.6 57.7 81.7 57.9 81.8 58.2 81.8 58.4 81.8 58.6 81.8 58.8 81.7 59.2 81.5 59.5 81.2 59.7 80.8 60.2 79.5 60.3 78 60.4 76.6 64 78.8 69.2 80.1 70 80.3H70.4C71.2 80.3 71.9 79.6 71.9 78.8 71.9 78.6 71.9 78.4 71.8 78.2 71.2 76 70.1 73.5 69.1 71.5H70.2C73.2 71.5 77.4 70.5 80.2 67.8 83.6 64.4 92.6 62.6 92.7 62.6 93.3 62.5 93.7 62 93.9 61.4S93.1 60.4 92.7 60M77.5 65.8C75.4 67.9 71.9 68.7 69.6 68.7 67.7 68.7 66.7 68.2 66.5 68 66 67.5 65.1 67.4 64.5 67.9S63.7 69.2 64.1 69.8C64.1 69.8 66.2 73.4 67.5 76.7 64.3 75.7 60.6 74.1 59.4 72.4 59 71.8 58.3 71.6 57.6 71.9 57 72.2 56.6 72.8 56.7 73.5S57 76 56.8 77.7C55.2 76.3 52.9 73.5 51.5 68.8V68.7C55.2 69 58.7 70.2 61.3 72.1 61.6 72.3 61.9 72.4 62.2 72.4 62.7 72.4 63.1 72.2 63.4 71.8 63.9 71.1 63.8 70.2 63.1 69.7 60.8 68 58 66.8 55 66.1 59.8 64.3 67.2 63 76.9 62.5 77.7 62.5 78.4 61.7 78.3 60.9 78.3 60.1 77.6 59.5 76.7 59.5 66.4 60.1 58.6 61.4 53.4 63.5 57.7 56.9 67.5 47.6 76.3 42.1 77 41.7 77.2 40.7 76.8 40S75.4 39.1 74.7 39.5C66.7 44.5 58.1 52.4 52.9 59 55.6 47.2 59.1 33.8 64.5 24.7 64.9 24 64.7 23.1 64 22.6 63.3 22.2 62.4 22.4 61.9 23.1 56.2 32.8 52.6 46.6 49.9 58.8 47.1 46.7 43.6 32.8 37.9 23.1 37.5 22.4 36.6 22.2 35.8 22.6 35.1 23 34.9 23.9 35.3 24.7 40.7 33.9 44.2 47.2 46.9 59 41.7 52.4 33.1 44.5 25.1 39.5 24.4 39.1 23.5 39.3 23 40 22.6 40.7 22.8 41.6 23.5 42.1 32.3 47.6 42.1 56.9 46.4 63.5 41.3 61.4 33.5 60.1 23.1 59.5 22.2 59.5 21.6 60.1 21.5 60.9 21.5 61.7 22.1 62.4 22.9 62.5 32.6 63 40 64.3 44.8 66.1 41.8 66.7 39 67.9 36.7 69.7 36 70.2 35.9 71.1 36.4 71.8 36.7 72.2 37.1 72.4 37.6 72.4 37.9 72.4 38.2 72.3 38.5 72.1 41.2 70.1 44.8 68.9 48.6 68.7 47.2 73.6 44.8 76.3 43.2 77.7 43 75.6 43.3 73.5 43.3 73.5 43.4 72.8 43 72.2 42.4 71.9 42.2 71.8 42 71.8 41.8 71.8 41.3 71.8 40.9 72 40.6 72.4 39.5 74 35.7 75.6 32.5 76.7 33.8 73.3 35.9 69.8 35.9 69.8 36.3 69.1 36.1 68.3 35.5 67.9S34.1 67.5 33.5 68C33.3 68.2 32.3 68.7 30.4 68.7 28.1 68.7 24.6 67.9 22.5 65.8 20 63.3 15.3 61.6 12 60.6 18.3 57.3 26.9 55.4 27 55.4 27.6 55.3 28.1 54.8 28.2 54.1 28.3 53.5 28 52.9 27.4 52.6L27.2 52.5C24.6 51.2 17.6 47.7 17.6 42.6 17.6 38 14.9 32 13.2 28.8 18 29.8 24.2 34.8 26.4 36.9 26.9 37.4 27.8 37.4 28.3 37 28.9 36.5 29 35.7 28.7 35.1 27.4 32.7 26.8 27.7 29.4 21.7 30.9 18.4 32 14.2 32.8 10.8 33.8 12.2 35.5 13.6 38.2 15.3 45.3 19.6 48.6 24.9 48.7 24.9 49 25.3 49.5 25.6 50 25.6S51 25.3 51.3 24.9C51.3 24.8 54.7 19.6 61.8 15.3 64.5 13.6 66.2 12.1 67.2 10.8 68 14.2 69.1 18.4 70.6 21.7 73.3 27.7 72.7 32.7 71.3 35.1 70.9 35.7 71.1 36.6 71.7 37 72.3 37.5 73.1 37.4 73.6 36.9 75.8 34.8 82 29.8 86.8 28.8 85.1 32.1 82.4 38 82.4 42.6 82.4 47.7 75.4 51.2 72.8 52.5L72.6 52.6C72 52.9 71.7 53.5 71.8 54.1S72.4 55.2 73 55.4C73.1 55.4 81.6 57.3 88 60.6 84.7 61.6 80 63.3 77.5 65.8" fill="#e2b8a5" data-fill-palette-color="accent"></path></svg></g></svg></g></svg></g><defs></defs></svg><rect width="395.52" height="116.74258112625864" fill="none" stroke="none" visibility="hidden"></rect></g></svg></g></svg>